<svg xmlns="http://www.w3.org/2000/svg" version="1.1" xmlns:xlink="http://www.w3.org/1999/xlink" xmlns:svgjs="http://svgjs.dev/svgjs" width="1000" height="315" viewBox="0 0 1000 315"><g transform="matrix(1,0,0,1,-0.6060606060606233,-0.3089141549011458)"><svg viewBox="0 0 396 125" data-background-color="#ffffff" preserveAspectRatio="xMidYMid meet" height="315" width="1000" xmlns="http://www.w3.org/2000/svg" xmlns:xlink="http://www.w3.org/1999/xlink"><g id="tight-bounds" transform="matrix(1,0,0,1,0.2400000000000091,0.122584982103632)"><svg viewBox="0 0 395.52 120.99531583315667" height="120.99531583315667" width="395.52"><g><svg viewBox="0 0 395.52 120.99531583315667" height="120.99531583315667" width="395.52"><g><svg viewBox="0 0 395.52 120.99531583315667" height="120.99531583315667" width="395.52"><g id="textblocktransform"><svg viewBox="0 0 395.52 120.99531583315667" height="120.99531583315667" width="395.52" id="textblock"><g><rect width="395.52" height="95.40883649897695" fill="none" stroke-width="8.962371322224001" stroke="#f30938" data-fill-palette-color="none" data-stroke-palette-color="tertiary"></rect><rect width="395.52" height="29.345993536815755" y="95.40883649897695" fill="#f30938" data-fill-palette-color="tertiary"></rect></g><g><svg viewBox="0 0 395.52 94.40883649897695" height="94.40883649897695" width="395.52"><g transform="matrix(1,0,0,1,23.461705032,23.461705032)"><svg width="348.596589936" viewBox="1.5 -35.70000076293945 266.8299865722656 36.35000228881836" height="47.48542643497695" data-palette-color="#d70833"><path d="M18.9-3.8L23.6-8.2 23.35-12.95 18.7-17.2 11.7-15.9 10.9-15.25 10.6-4.45 11.8-3.5 18.9-3.8ZM12.3-31.45L10.4-30.8 10.8-20.55 11.35-19.55 18.45-21.1 22.7-24.85 19.55-31.55 12.3-31.45ZM25.45-16L27.6-7.7 21.5 0 7.15-0.3 7.15-0.3 1.75-0.35 1.5-2 7.1-2.95 6.25-31.7 1.95-33.15 1.6-34.8 7.35-34.8 7.4-34.8 14.4-35 22.3-34 26.55-23.9 21.6-18.65 25.45-16ZM51.15-19.15L55.6-23.9 53.8-30.35 46.45-31.65 41.3-30.85 42.15-19.75 51.15-19.15ZM62.6-9.45L65.75-6.15 59.55-0.6 55.65-1.25 53-13 48.3-16.45 41.8-15.5 41.95-3.1 45.1-2.05 45.5-0.15 34.75-0.3 34.65-1.65 37.6-2.8 37-29.25 35.2-31.2 31.6-31.6 31.75-34.3 35.85-34.4 37.95-33.55 39.2-34.65 52.8-34.45 59.1-28.65 58.2-20.3 53.85-17 57.55-13.45 57.9-4.45 59-4.05 62.6-9.45ZM74.84-2.1L77.8-1 77.9 0.5 68.34-0.25 68.3-1.7 71.75-2.8 70.9-32.75 67.25-34 67.34-35.35 78.05-35.45 78.34-33.65 75-32.65 74.84-2.1ZM108.59-7.3L108.64 0.6 82.64 0.25 82.39-1.45 87.39-2.35 85.69-32.15 81.24-33.7 80.84-35.45 107.74-34.8 107.79-28.35 105.24-28.45 104.49-31.6 90.94-31.65 89.99-30.4 90.24-19.65 105.64-18.6 105.19-16.4 90.39-16.1 90.24-11.95 92.79-3.45 105.44-2.95 106.04-7 108.59-7.3ZM137.39-35L135.74-27.75 133.79-27.75 132.94-31 120.74-31.4 121.14-20.05 133.29-19.65 133.29-17.65 120.74-16 121.94-2.55 121.94-2.55 126.04-2.2 126.84 0.25 114.64 0.25 114.29-1.35 117.04-1.75 116.29-31.8 112.99-33.05 112.64-34.65 120.74-34.65 120.74-34.65 137.39-35ZM146.64-34.3L158.94-35.2 162.09-33.05 163.49-35 166.14-32.9 161.44-27.25 159.54-29 157.14-32.1 149.64-30.9 145.69-26.9 148.74-21.25 161.69-17.85 164.74-14.1 163.84-4.35 153.49 0.45 144.34-2.05 142.79 0.45 139.74-0.25 142.79-6.95 145.34-6.2 153.24-3.65 161.04-6.75 159.54-14.5 144.19-17.65 141.34-28.1 146.64-34.3ZM185.19-31L175.89-30.7 173.14-20.4 175.64-8.5 181.99-3.05 186.19-2.7 192.79-14.25 190.29-26.15 185.19-31ZM177.89-35.7L187.84-34.8 194.54-27.5 196.34-13.25 188.79 0.35 179.89 0.65 171.79-7.45 169.89-20.05 172.54-32 177.89-35.7ZM234.48-2.35L238.03-1.25 237.78 0.2 227.18 0.15 227.13-1.35 231.28-2.45 231.88-30.3 231.28-30.4 220.68-0.85 217.83-0.85 207.93-29.65 206.73-29.55 208.23-2.6 211.38-1.6 211.68 0.25 201.33 0.05 201.23-1.25 204.18-2.35 203.78-32.95 200.48-34.1 200.33-35.25 208.58-34.85 209.98-32.6 219.08-5.4 219.53-5.55 228.58-33.4 229.83-35.1 237.78-35.1 237.78-33.5 235.48-32.95 234.48-2.35ZM268.28-7.3L268.33 0.6 242.33 0.25 242.08-1.45 247.08-2.35 245.38-32.15 240.93-33.7 240.53-35.45 267.43-34.8 267.48-28.35 264.93-28.45 264.18-31.6 250.63-31.65 249.68-30.4 249.93-19.65 265.33-18.6 264.88-16.4 250.08-16.1 249.93-11.95 252.48-3.45 265.13-2.95 265.73-7 268.28-7.3Z" opacity="1" transform="matrix(1,0,0,1,0,0)" fill="#d70833" class="undefined-text-0" data-fill-palette-color="primary" id="text-0"></path></svg></g></svg></g><g transform="matrix(1,0,0,1,75.54432,94.40883649897695)"><svg viewBox="0 0 244.43135999999998 26.586479334179707" height="26.586479334179707" width="244.43135999999998"><g transform="matrix(1,0,0,1,20,3.2)"><svg width="204.43135999999998" viewBox="3.950000047683716 -35 354.41998291015625 35" height="20.186479334179708" data-palette-color="#ffffff"><path d="M22.8 0L3.95 0 3.95-35 22.6-35Q25.35-35 27.35-33.8 29.35-32.6 30.48-30.63 31.6-28.65 31.6-26.2L31.6-26.2Q31.6-24.45 30.83-22.78 30.05-21.1 28.7-19.85 27.35-18.6 25.5-18.05L25.5-18.05Q27.6-17.6 29.18-16.3 30.75-15 31.6-13.2 32.45-11.4 32.45-9.35L32.45-9.35Q32.45-6.85 31.33-4.7 30.2-2.55 28.03-1.28 25.85 0 22.8 0L22.8 0ZM7.55-16.25L7.55-3.25 22.15-3.25Q24.3-3.25 25.8-4.17 27.3-5.1 28.08-6.63 28.85-8.15 28.85-9.85L28.85-9.85Q28.85-11.5 28.03-12.98 27.2-14.45 25.68-15.35 24.15-16.25 21.9-16.25L21.9-16.25 7.55-16.25ZM7.55-31.8L7.55-19.4 21.2-19.4Q23.25-19.4 24.78-20.3 26.3-21.2 27.13-22.63 27.95-24.05 27.95-25.7L27.95-25.7Q27.95-27.3 27.2-28.7 26.45-30.1 25.03-30.95 23.6-31.8 21.65-31.8L21.65-31.8 7.55-31.8ZM42.15 0L38.55 0 38.55-35 53.75-35Q56.95-35 59.6-33.6 62.25-32.2 63.82-29.7 65.4-27.2 65.4-23.9L65.4-23.9Q65.4-20.35 63.55-17.7 61.7-15.05 58.6-13.8L58.6-13.8 62.55-5.25Q63.05-4.2 63.65-3.73 64.25-3.25 65.3-3.25L65.3-3.25 67.4-3.25 67.4 0 64.8 0Q62.9 0 61.55-0.95 60.2-1.9 59.3-3.65L59.3-3.65 55-12.95Q54.4-12.9 53.77-12.85 53.15-12.8 52.55-12.8L52.55-12.8 42.15-12.8 42.15 0ZM42.15-31.8L42.15-16 53.15-16Q55.55-16 57.5-16.93 59.45-17.85 60.62-19.63 61.8-21.4 61.8-23.9L61.8-23.9Q61.8-26.35 60.62-28.15 59.45-29.95 57.52-30.88 55.6-31.8 53.3-31.8L53.3-31.8 42.15-31.8ZM88.44 0L70.94 0 70.94-3.2 77.89-3.2 77.89-31.8 70.94-31.8 70.94-35 88.44-35 88.44-31.8 81.5-31.8 81.5-3.2 88.44-3.2 88.44 0ZM116.64 0L103.14 0Q100.24 0 98.09-1.35 95.94-2.7 94.77-4.93 93.59-7.15 93.59-9.65L93.59-9.65Q93.59-12.15 94.87-14.38 96.14-16.6 98.59-17.75L98.59-17.75Q96.14-19 94.97-21.08 93.79-23.15 93.79-25.45L93.79-25.45Q93.79-28.1 95.04-30.25 96.29-32.4 98.39-33.68 100.49-34.95 103.09-34.95L103.09-34.95 116.64-34.95 116.64-31.75 103.49-31.75Q101.74-31.75 100.37-30.93 98.99-30.1 98.19-28.65 97.39-27.2 97.39-25.45L97.39-25.45Q97.39-23.85 98.24-22.45 99.09-21.05 100.49-20.23 101.89-19.4 103.69-19.4L103.69-19.4 114.79-19.4 114.79-16.2 103.99-16.2Q101.84-16.2 100.32-15.25 98.79-14.3 98.02-12.8 97.24-11.3 97.24-9.6L97.24-9.6Q97.24-7.95 97.99-6.5 98.74-5.05 100.19-4.13 101.64-3.2 103.69-3.2L103.69-3.2 116.64-3.2 116.64 0ZM126.24 0L122.64 0 122.64-26.45Q122.69-28.95 123.77-30.88 124.84-32.8 126.77-33.9 128.69-35 131.24-35L131.24-35 143.54-35 143.54-31.8 131.59-31.8Q129.14-31.8 127.69-30.28 126.24-28.75 126.24-26.45L126.24-26.45 126.24-18.6 141.69-18.6 141.69-15.4 126.24-15.4 126.24 0ZM181.34 0L162.49 0 162.49-35 181.14-35Q183.89-35 185.89-33.8 187.89-32.6 189.01-30.63 190.14-28.65 190.14-26.2L190.14-26.2Q190.14-24.45 189.36-22.78 188.59-21.1 187.24-19.85 185.89-18.6 184.04-18.05L184.04-18.05Q186.14-17.6 187.71-16.3 189.29-15 190.14-13.2 190.99-11.4 190.99-9.35L190.99-9.35Q190.99-6.85 189.86-4.7 188.74-2.55 186.56-1.28 184.39 0 181.34 0L181.34 0ZM166.09-16.25L166.09-3.25 180.69-3.25Q182.84-3.25 184.34-4.17 185.84-5.1 186.61-6.63 187.39-8.15 187.39-9.85L187.39-9.85Q187.39-11.5 186.56-12.98 185.74-14.45 184.21-15.35 182.69-16.25 180.44-16.25L180.44-16.25 166.09-16.25ZM166.09-31.8L166.09-19.4 179.74-19.4Q181.79-19.4 183.31-20.3 184.84-21.2 185.66-22.63 186.49-24.05 186.49-25.7L186.49-25.7Q186.49-27.3 185.74-28.7 184.99-30.1 183.56-30.95 182.14-31.8 180.19-31.8L180.19-31.8 166.09-31.8ZM200.68 0L197.08 0 197.08-35 212.28-35Q215.48-35 218.13-33.6 220.78-32.2 222.36-29.7 223.93-27.2 223.93-23.9L223.93-23.9Q223.93-20.35 222.08-17.7 220.23-15.05 217.13-13.8L217.13-13.8 221.08-5.25Q221.58-4.2 222.18-3.73 222.78-3.25 223.83-3.25L223.83-3.25 225.93-3.25 225.93 0 223.33 0Q221.43 0 220.08-0.95 218.73-1.9 217.83-3.65L217.83-3.65 213.53-12.95Q212.93-12.9 212.31-12.85 211.68-12.8 211.08-12.8L211.08-12.8 200.68-12.8 200.68 0ZM200.68-31.8L200.68-16 211.68-16Q214.08-16 216.03-16.93 217.98-17.85 219.16-19.63 220.33-21.4 220.33-23.9L220.33-23.9Q220.33-26.35 219.16-28.15 217.98-29.95 216.06-30.88 214.13-31.8 211.83-31.8L211.83-31.8 200.68-31.8ZM246.98 0L229.48 0 229.48-3.2 236.43-3.2 236.43-31.8 229.48-31.8 229.48-35 246.98-35 246.98-31.8 240.03-31.8 240.03-3.2 246.98-3.2 246.98 0ZM275.18 0L261.68 0Q258.78 0 256.63-1.35 254.48-2.7 253.3-4.93 252.13-7.15 252.13-9.65L252.13-9.65Q252.13-12.15 253.4-14.38 254.68-16.6 257.13-17.75L257.13-17.75Q254.68-19 253.5-21.08 252.33-23.15 252.33-25.45L252.33-25.45Q252.33-28.1 253.58-30.25 254.83-32.4 256.93-33.68 259.03-34.95 261.63-34.95L261.63-34.95 275.18-34.95 275.18-31.75 262.03-31.75Q260.28-31.75 258.9-30.93 257.53-30.1 256.73-28.65 255.93-27.2 255.93-25.45L255.93-25.45Q255.93-23.85 256.78-22.45 257.63-21.05 259.03-20.23 260.43-19.4 262.23-19.4L262.23-19.4 273.33-19.4 273.33-16.2 262.53-16.2Q260.38-16.2 258.85-15.25 257.33-14.3 256.55-12.8 255.78-11.3 255.78-9.6L255.78-9.6Q255.78-7.95 256.53-6.5 257.28-5.05 258.73-4.13 260.18-3.2 262.23-3.2L262.23-3.2 275.18-3.2 275.18 0ZM284.78 0L281.18 0 281.18-26.45Q281.23-28.95 282.3-30.88 283.38-32.8 285.3-33.9 287.23-35 289.78-35L289.78-35 302.08-35 302.08-31.8 290.13-31.8Q287.68-31.8 286.23-30.28 284.78-28.75 284.78-26.45L284.78-26.45 284.78-18.6 300.23-18.6 300.23-15.4 284.78-15.4 284.78 0ZM325.67 0L316.17 0Q313.52 0 311.57-1.13 309.62-2.25 308.57-4.25 307.52-6.25 307.52-8.8L307.52-8.8 307.52-34.95 311.12-34.95 311.12-8.3Q311.12-6.1 312.5-4.65 313.87-3.2 316.27-3.2L316.27-3.2 325.67-3.2 325.67 0ZM346.57 0L342.97 0 342.97-10.35Q339.17-10.75 336.55-12.68 333.92-14.6 332.6-17.65 331.27-20.7 331.27-24.35L331.27-24.35 331.27-34.95 334.87-34.95 334.87-24Q334.87-21.2 336.02-18.8 337.17-16.4 339.42-14.93 341.67-13.45 344.82-13.45L344.82-13.45Q348.02-13.45 350.22-14.93 352.42-16.4 353.6-18.8 354.77-21.2 354.77-24L354.77-24 354.77-34.95 358.37-34.95 358.37-24.35Q358.37-20.7 357.02-17.65 355.67-14.6 353.05-12.65 350.42-10.7 346.57-10.35L346.57-10.35 346.57 0Z" opacity="1" transform="matrix(1,0,0,1,0,0)" fill="#ffffff" class="undefined-text-1" data-fill-palette-color="quaternary" id="text-1"></path></svg></g></svg></g></svg></g></svg></g></svg></g><defs></defs></svg><rect width="395.52" height="120.99531583315667" fill="none" stroke="none" visibility="hidden"></rect></g></svg></g></svg>